<?xml version="1.0" encoding="iso-8859-1"?>
<!-- Generator: Adobe Illustrator 19.0.0, SVG Export Plug-In . SVG Version: 6.00 Build 0)  -->
<svg version="1.1" id="Capa_1" xmlns="http://www.w3.org/2000/svg" xmlns:xlink="http://www.w3.org/1999/xlink" x="0px" y="0px"
	 viewBox="0 0 493.282 493.282" style="enable-background:new 0 0 493.282 493.282;" xml:space="preserve">
<g>
	<path style="fill:#F95055;" d="M208,493.001H0v-24c0-4.416,3.584-8,8-8h192c4.416,0,8,3.584,8,8V493.001z"/>
	<path style="fill:#F95055;" d="M181.408,76.465l-30.928-21.76c-3.144-1.888-7.176-1.392-9.776,1.2l-13.792,13.792
		c-2.6,2.592-3.096,6.624-1.2,9.776l21.76,30.928L181.408,76.465z"/>
</g>
<rect x="252.203" y="176.998" transform="matrix(-0.7071 -0.7071 0.7071 -0.7071 322.211 535.4596)" style="fill:#FB9700;" width="39.6" height="48"/>
<rect x="237.467" y="149.968" transform="matrix(-0.7071 -0.7071 0.7071 -0.7071 303.1642 489.5094)" style="fill:#F95055;" width="30.992" height="63.999"/>
<rect x="341.996" y="198.839" transform="matrix(-0.7071 0.7071 -0.7071 -0.7071 833.3891 244.7944)" style="fill:#FB9700;" width="48" height="192.318"/>
<rect x="135.704" y="53.455" transform="matrix(-0.7071 -0.7071 0.7071 -0.7071 247.1164 367.659)" style="fill:#FDCD3B;" width="127.999" height="158.39"/>
<g>
	<path style="fill:#F95055;" d="M280.888,142.009l-90.512-90.512c-3.128-3.128-3.128-8.192,0-11.312l5.656-5.656
		c3.12-3.128,8.192-3.128,11.312,0l90.512,90.512c3.128,3.128,3.128,8.192,0,11.312l-5.656,5.656
		C289.08,145.129,284.008,145.129,280.888,142.009z"/>
	
		<rect x="276.223" y="189.193" transform="matrix(-0.7071 -0.7071 0.7071 -0.7071 342.4495 584.2318)" style="fill:#F95055;" width="32" height="63.999"/>
	<path style="fill:#F95055;" d="M485.896,363.993l-15.664-10.016l-18.672-18.672l-45.256,45.256l18.104,18.104l10.552,16.352
		c5.528,8.568,17.552,9.848,24.76,2.64l28.872-28.872C495.824,381.561,494.512,369.497,485.896,363.993z"/>
</g>
<path style="fill:#FB9700;" d="M323.256,112.337l-25.4,12.696l-90.512-90.504l12.704-25.4c4.88-9.768,17.904-11.88,25.624-4.16
	l81.744,81.744C335.136,94.433,333.024,107.449,323.256,112.337z"/>
<path style="fill:#F95055;" d="M213.008,209.889l-90.512-90.512c-3.128-3.12-8.192-3.12-11.312,0l-5.656,5.656
	c-3.128,3.128-3.128,8.192,0,11.312l90.512,90.512c3.12,3.128,8.192,3.128,11.312,0l5.656-5.656
	C216.128,218.081,216.128,213.009,213.008,209.889z"/>
<path style="fill:#FB9700;" d="M183.336,252.257l12.696-25.4l-90.504-90.504l-25.4,12.696c-9.768,4.888-11.88,17.904-4.16,25.624
	l81.744,81.744C165.432,264.137,178.448,262.025,183.336,252.257z"/>
<ellipse transform="matrix(-0.0064 -1 1 -0.0064 -268.4179 479.3189)" style="fill:#FDCD3B;" cx="103.922" cy="373.012" rx="87.922" ry="88.082"/>
<path style="fill:#FFF7E2;" d="M136,380.697c-0.024-4.272-1.712-8.28-4.76-11.288c-3.016-2.976-7-4.608-11.224-4.608
	c-0.04,0-0.08,0-0.12,0l-31.8,0.192L88,349.257l40.048-0.256l-0.104-16l-15.896,0.104l-0.048-8.16l-16,0.112l0.048,8.152
	l-8.144,0.056c-4.28,0.024-8.288,1.712-11.296,4.76c-3,3.04-4.64,7.072-4.616,11.344l0.104,15.736
	c0.024,4.28,1.712,8.288,4.76,11.288c3.016,2.976,7.008,4.608,11.232,4.608c0.04,0,0.08,0,0.12,0L120,380.793l0.104,16.208
	l-40.16,0.256l0.104,16l16-0.104l0.048,7.896l16-0.112l-0.048-7.896l8.16-0.04c8.816-0.064,15.944-7.28,15.888-16.096L136,380.697z"
	/>
<g>
</g>
<g>
</g>
<g>
</g>
<g>
</g>
<g>
</g>
<g>
</g>
<g>
</g>
<g>
</g>
<g>
</g>
<g>
</g>
<g>
</g>
<g>
</g>
<g>
</g>
<g>
</g>
<g>
</g>
</svg>
